<?xml version="1.0" encoding="UTF-8" standalone="no"?>
<!-- Created with Inkscape (http://www.inkscape.org/) -->

<svg
   version="1.1"
   id="svg2"
   xml:space="preserve"
   width="173.73334"
   height="198.26666"
   viewBox="0 0 173.73334 198.26666"
   sodipodi:docname="logo.pdf"
   inkscape:version="1.1.2 (0a00cf5339, 2022-02-04)"
   xmlns:inkscape="http://www.inkscape.org/namespaces/inkscape"
   xmlns:sodipodi="http://sodipodi.sourceforge.net/DTD/sodipodi-0.dtd"
   xmlns="http://www.w3.org/2000/svg"
   xmlns:svg="http://www.w3.org/2000/svg"><defs
     id="defs6"><clipPath
       clipPathUnits="userSpaceOnUse"
       id="clipPath20"><path
         d="M 0,148.7 H 130.3 V 0 H 0 Z"
         id="path18" /></clipPath><clipPath
       clipPathUnits="userSpaceOnUse"
       id="clipPath40"><path
         d="M 24.13,74.205 H 38.27 V 55.515 H 24.13 Z"
         id="path38" /></clipPath><clipPath
       clipPathUnits="userSpaceOnUse"
       id="clipPath90"><path
         d="M 27.2812,58.0473 H 99.1064 V 22.4877 H 27.2812 Z"
         id="path88" /></clipPath><clipPath
       clipPathUnits="userSpaceOnUse"
       id="clipPath106"><path
         d="M 26.6875,58.6411 H 99.7002 V 21.894 H 26.6875 Z"
         id="path104" /></clipPath></defs><sodipodi:namedview
     id="namedview4"
     pagecolor="#ffffff"
     bordercolor="#666666"
     borderopacity="1.0"
     inkscape:pageshadow="2"
     inkscape:pageopacity="0.0"
     inkscape:pagecheckerboard="0"
     showgrid="false"
     inkscape:zoom="3.7575656"
     inkscape:cx="86.758298"
     inkscape:cy="99.133331"
     inkscape:window-width="1846"
     inkscape:window-height="1016"
     inkscape:window-x="0"
     inkscape:window-y="0"
     inkscape:window-maximized="1"
     inkscape:current-layer="g8" /><g
     id="g8"
     inkscape:groupmode="layer"
     inkscape:label="logo"
     transform="matrix(1.3333333,0,0,-1.3333333,0,198.26667)"><g
       id="g10"
       transform="translate(65.5,141.265)"><path
         d="m 0,0 58.03,-33.46 v -66.99 L 0,-133.91 l -58.03,33.46 v 66.99 z"
         style="fill:#006680;fill-opacity:1;fill-rule:nonzero;stroke:none"
         id="path12" /></g><g
       id="g14"><g
         id="g16"
         clip-path="url(#clipPath20)"><g
           id="g22"
           transform="translate(38.76,108.715)"><path
             d="m 0,0 c 0,0 0.56,-1.05 1.75,-3.08 1.19,-2.03 1.75,-3.08 1.75,-3.08 0,0 -0.56,0.28 -1.75,0.84 C 0.56,-4.76 0,-4.48 0,-4.48 c 0,0 -0.56,-0.28 -1.75,-0.84 -1.19,-0.56 -1.75,-0.84 -1.75,-0.84 0,0 0.56,1.05 1.75,3.08 C -0.63,-0.98 0,0 0,0"
             style="fill:#cccccc;fill-opacity:1;fill-rule:evenodd;stroke:none"
             id="path24" /></g><g
           id="g26"
           transform="translate(38.76,74.625)"><path
             d="M 0,0 V 30.66"
             style="fill:#cccccc;fill-opacity:1;fill-rule:nonzero;stroke:#cccccc;stroke-width:1.4;stroke-linecap:square;stroke-linejoin:miter;stroke-miterlimit:10;stroke-dasharray:none;stroke-opacity:1"
             id="path28" /></g><g
           id="g30"
           transform="translate(20.14,50.685)"><path
             d="m 0,0 c 0,0 0.21,1.05 0.56,3.08 0.42,2.1 0.56,3.08 0.56,3.08 0,0 0.42,-0.49 1.19,-1.54 C 3.08,3.57 3.5,3.08 3.5,3.08 3.5,3.08 4.27,2.94 5.88,2.66 7.42,2.38 8.26,2.24 8.26,2.24 8.26,2.24 6.86,1.82 4.13,1.05 1.4,0.42 0,0 0,0"
             style="fill:#cccccc;fill-opacity:1;fill-rule:evenodd;stroke:none"
             id="path32" /></g><g
           id="g34"><g
             id="g36" /><g
             id="g48"><g
               clip-path="url(#clipPath40)"
               opacity="0"
               id="g46"><g
                 transform="translate(24.13,55.515)"
                 id="g44"><path
                   d="M 0,0 14.14,18.69"
                   style="fill:#000000;fill-opacity:1;fill-rule:nonzero;stroke:none"
                   id="path42" /></g></g></g></g><g
           id="g50"
           transform="translate(24.13,55.515)"><path
             d="M 0,0 14.14,18.69"
             style="fill:none;stroke:#cccccc;stroke-width:1.4;stroke-linecap:square;stroke-linejoin:miter;stroke-miterlimit:10;stroke-dasharray:none;stroke-opacity:1"
             id="path52" /></g><g
           id="g54"
           transform="translate(39.04,74.555)"><path
             d="M 0,0 54.46,-3.43"
             style="fill:#cccccc;fill-opacity:1;fill-rule:nonzero;stroke:#cccccc;stroke-width:1.422;stroke-linecap:square;stroke-linejoin:miter;stroke-miterlimit:10;stroke-dasharray:none;stroke-opacity:1"
             id="path56" /></g><g
           id="g58"
           transform="translate(102.39,70.075)"><path
             d="m 0,0 c 0,0 -2.31,-0.35 -7,-0.98 -4.69,-0.63 -7,-0.98 -7,-0.98 0,0 0.84,0.49 2.59,1.47 1.75,0.98 2.59,1.47 2.59,1.47 0,0 -0.21,0.56 -0.63,1.75 -0.42,1.12 -0.63,1.75 -0.63,1.75 0,0 1.68,-0.77 5.04,-2.24 C -1.68,0.77 0,0 0,0"
             style="fill:#cccccc;fill-opacity:1;fill-rule:evenodd;stroke:none"
             id="path60" /></g><path
           d="m 72.29,99.405 h 2.45 v -2.45 h -2.45 z"
           style="fill:#666666;fill-opacity:1;fill-rule:nonzero;stroke:#cccccc;stroke-width:0.798;stroke-linecap:butt;stroke-linejoin:bevel;stroke-miterlimit:10;stroke-dasharray:none;stroke-opacity:1"
           id="path62" /><path
           d="m 80.48,86.175 h 2.45 v -2.45 h -2.45 z"
           style="fill:#666666;fill-opacity:1;fill-rule:nonzero;stroke:#cccccc;stroke-width:0.798;stroke-linecap:butt;stroke-linejoin:bevel;stroke-miterlimit:10;stroke-dasharray:none;stroke-opacity:1"
           id="path64" /><path
           d="m 80.48,86.175 h 2.45 v -2.45 h -2.45 z"
           style="fill:#666666;fill-opacity:1;fill-rule:nonzero;stroke:#cccccc;stroke-width:0.798;stroke-linecap:butt;stroke-linejoin:bevel;stroke-miterlimit:10;stroke-dasharray:none;stroke-opacity:1"
           id="path66" /><path
           d="m 64.73,110.745 h 2.45 v -2.45 h -2.45 z"
           style="fill:#666666;fill-opacity:1;fill-rule:nonzero;stroke:#cccccc;stroke-width:0.798;stroke-linecap:butt;stroke-linejoin:bevel;stroke-miterlimit:10;stroke-dasharray:none;stroke-opacity:1"
           id="path68" /><path
           d="m 41.84,70.355 h 2.45 v -2.45 h -2.45 z"
           style="fill:#666666;fill-opacity:1;fill-rule:nonzero;stroke:#cccccc;stroke-width:0.798;stroke-linecap:butt;stroke-linejoin:bevel;stroke-miterlimit:10;stroke-dasharray:none;stroke-opacity:1"
           id="path70" /><path
           d="m 69.35,91.705 h 2.45 v -2.45 h -2.45 z"
           style="fill:#666666;fill-opacity:1;fill-rule:nonzero;stroke:#cccccc;stroke-width:0.798;stroke-linecap:butt;stroke-linejoin:bevel;stroke-miterlimit:10;stroke-dasharray:none;stroke-opacity:1"
           id="path72" /><path
           d="m 80.06,67.135 h 2.45 v -2.45 h -2.45 z"
           style="fill:#666666;fill-opacity:1;fill-rule:nonzero;stroke:#cccccc;stroke-width:0.798;stroke-linecap:butt;stroke-linejoin:bevel;stroke-miterlimit:10;stroke-dasharray:none;stroke-opacity:1"
           id="path74" /><path
           d="m 24.2,75.955 h 2.45 v -2.45 H 24.2 Z"
           style="fill:#666666;fill-opacity:1;fill-rule:nonzero;stroke:#cccccc;stroke-width:0.798;stroke-linecap:butt;stroke-linejoin:bevel;stroke-miterlimit:10;stroke-dasharray:none;stroke-opacity:1"
           id="path76" /><path
           d="m 21.4,73.505 h 2.45 v -2.45 H 21.4 Z"
           style="fill:#666666;fill-opacity:1;fill-rule:nonzero;stroke:#cccccc;stroke-width:0.798;stroke-linecap:butt;stroke-linejoin:bevel;stroke-miterlimit:10;stroke-dasharray:none;stroke-opacity:1"
           id="path78" /><path
           d="m 46.95,64.265 h 2.45 v -2.45 h -2.45 z"
           style="fill:#666666;fill-opacity:1;fill-rule:nonzero;stroke:#cccccc;stroke-width:0.798;stroke-linecap:butt;stroke-linejoin:bevel;stroke-miterlimit:10;stroke-dasharray:none;stroke-opacity:1"
           id="path80" /><path
           d="m 82.37,99.125 h 2.45 v -2.45 h -2.45 z"
           style="fill:#666666;fill-opacity:1;fill-rule:nonzero;stroke:#cccccc;stroke-width:0.798;stroke-linecap:butt;stroke-linejoin:bevel;stroke-miterlimit:10;stroke-dasharray:none;stroke-opacity:1"
           id="path82" /><g
           id="g84"><g
             id="g86" /><g
             id="g98"><g
               clip-path="url(#clipPath90)"
               id="g96"><text
                 transform="matrix(1,0,0,-0.99631377,27.2813,34.5107)"
                 style="font-variant:normal;font-weight:bold;font-stretch:normal;font-size:29.9222px;font-family:Courier;-inkscape-font-specification:Courier-Bold;writing-mode:lr-tb;fill:#ffffff;fill-opacity:1;fill-rule:nonzero;stroke:none"
                 id="text94"><tspan
                   x="0 17.95332 35.906639 53.859959"
                   y="0"
                   sodipodi:role="line"
                   id="tspan92">ade4</tspan></text></g></g></g><g
           id="g100"><g
             id="g102" /><g
             id="g126"><g
               clip-path="url(#clipPath106)"
               id="g124"><g
                 transform="translate(42.2129,43.0996)"
                 id="g110"><path
                   d="M 0,0 C 0,1.901 -0.448,3.25 -1.344,4.046 -2.24,4.842 -3.726,5.24 -5.8,5.24 c -1.987,0 -3.558,-0.231 -4.712,-0.691 -1.154,-0.461 -1.731,-1.085 -1.731,-1.871 0,-0.437 0.141,-0.788 0.423,-1.055 0.283,-0.268 0.653,-0.4 1.111,-0.4 0.467,0 1.2,0.237 2.199,0.713 0.998,0.475 1.819,0.712 2.462,0.712 0.827,0 1.453,-0.227 1.877,-0.683 0.423,-0.456 0.635,-1.121 0.635,-1.994 v -0.278 c -0.652,0.108 -1.241,0.185 -1.767,0.234 C -5.829,-0.024 -6.326,0 -6.793,0 c -2.095,0 -3.722,-0.403 -4.88,-1.209 -1.16,-0.806 -1.739,-1.936 -1.739,-3.392 0,-1.348 0.448,-2.411 1.344,-3.187 0.896,-0.776 2.128,-1.165 3.696,-1.165 0.926,0 1.841,0.141 2.747,0.423 0.906,0.281 1.763,0.688 2.572,1.222 0.156,-0.485 0.353,-0.82 0.592,-1.005 0.238,-0.184 0.601,-0.276 1.088,-0.276 H 0 c 0.663,0 1.137,0.124 1.425,0.371 0.287,0.248 0.431,0.653 0.431,1.216 0,0.514 -0.139,0.909 -0.417,1.187 -0.277,0.276 -0.679,0.414 -1.205,0.414 l -0.234,0 z m -3.536,-4.833 c -0.574,-0.408 -1.159,-0.709 -1.753,-0.902 -0.594,-0.195 -1.227,-0.292 -1.899,-0.292 -0.73,0 -1.291,0.148 -1.68,0.444 -0.39,0.296 -0.585,0.726 -0.585,1.288 0,0.631 0.305,1.126 0.913,1.485 0.609,0.359 1.449,0.539 2.521,0.539 0.351,0 0.73,-0.027 1.139,-0.081 0.409,-0.053 0.858,-0.133 1.344,-0.24 z"
                   style="fill:none;stroke:#000000;stroke-width:1.188;stroke-linecap:butt;stroke-linejoin:miter;stroke-miterlimit:4;stroke-dasharray:none;stroke-opacity:1"
                   id="path108" /></g><g
                 transform="translate(60.4321,52.6045)"
                 id="g114"><path
                   d="m 0,0 c 0,0.369 -0.061,0.621 -0.183,0.757 -0.122,0.136 -0.348,0.204 -0.679,0.204 h -4.544 c -0.672,0 -1.149,-0.126 -1.432,-0.379 -0.282,-0.252 -0.423,-0.664 -0.423,-1.237 0,-0.563 0.141,-0.973 0.423,-1.23 0.283,-0.258 0.76,-0.386 1.432,-0.386 h 1.944 v -3.682 c -0.546,0.417 -1.147,0.739 -1.805,0.968 -0.657,0.227 -1.332,0.341 -2.024,0.341 -2.006,0 -3.66,-0.665 -4.96,-1.994 -1.3,-1.33 -1.95,-3.004 -1.95,-5.022 0,-1.941 0.642,-3.559 1.928,-4.855 1.286,-1.295 2.883,-1.943 4.793,-1.943 0.935,0 1.777,0.173 2.527,0.518 0.75,0.343 1.364,0.84 1.841,1.491 v -1.019 c 0,-0.194 0.075,-0.346 0.226,-0.459 0.151,-0.111 0.368,-0.167 0.651,-0.167 H 0 c 0.662,0 1.132,0.126 1.41,0.379 0.277,0.252 0.416,0.664 0.416,1.237 0,0.514 -0.131,0.905 -0.394,1.171 -0.263,0.268 -0.658,0.401 -1.183,0.401 l -0.249,0 z m -4.471,-8.821 c 0.633,-0.718 0.95,-1.621 0.95,-2.707 0,-1.117 -0.314,-2.034 -0.942,-2.752 -0.629,-0.718 -1.425,-1.077 -2.389,-1.077 -0.964,0 -1.758,0.357 -2.382,1.07 -0.623,0.713 -0.935,1.633 -0.935,2.759 0,1.095 0.315,2.001 0.942,2.715 0.629,0.712 1.42,1.069 2.375,1.069 0.954,0 1.748,-0.36 2.381,-1.077 z"
                   style="fill:none;stroke:#000000;stroke-width:1.188;stroke-linecap:butt;stroke-linejoin:miter;stroke-miterlimit:4;stroke-dasharray:none;stroke-opacity:1"
                   id="path112" /></g><g
                 transform="translate(77.6143,40.377)"
                 id="g118"><path
                   d="m 0,0 c 0.867,0 1.439,0.106 1.717,0.32 0.277,0.213 0.416,0.607 0.416,1.179 0,1.796 -0.692,3.313 -2.074,4.55 -1.383,1.237 -3.127,1.855 -5.231,1.855 -2.357,0 -4.273,-0.66 -5.749,-1.979 -1.476,-1.321 -2.214,-3.014 -2.214,-5.08 0,-2.077 0.738,-3.776 2.214,-5.095 1.476,-1.32 3.392,-1.98 5.749,-1.98 1.996,0 3.672,0.33 5.026,0.99 1.354,0.66 2.031,1.446 2.031,2.358 0,0.417 -0.114,0.759 -0.344,1.027 -0.229,0.266 -0.523,0.399 -0.884,0.399 -0.243,0 -0.954,-0.293 -2.133,-0.88 -1.178,-0.588 -2.372,-0.881 -3.579,-0.881 -1.208,0 -2.174,0.267 -2.9,0.801 -0.726,0.533 -1.216,1.339 -1.469,2.416 z m -9.424,2.271 c 0.253,0.951 0.704,1.662 1.352,2.132 0.647,0.471 1.503,0.706 2.564,0.706 1.101,0 1.994,-0.247 2.681,-0.742 0.686,-0.495 1.113,-1.193 1.278,-2.096 z"
                   style="fill:none;stroke:#000000;stroke-width:1.188;stroke-linecap:butt;stroke-linejoin:miter;stroke-miterlimit:4;stroke-dasharray:none;stroke-opacity:1"
                   id="path116" /></g><g
                 transform="translate(94.0225,52.0664)"
                 id="g122"><path
                   d="m 0,0 c 0,0.213 -0.039,0.383 -0.117,0.509 -0.078,0.126 -0.19,0.204 -0.336,0.233 L -3.054,1.193 C -3.103,1.203 -3.158,1.21 -3.222,1.215 -3.285,1.22 -3.36,1.223 -3.448,1.223 -3.614,1.223 -3.743,1.193 -3.836,1.135 -3.928,1.077 -4.048,0.926 -4.193,0.684 L -10.33,-9.71 c -0.127,-0.223 -0.217,-0.435 -0.271,-0.633 -0.052,-0.199 -0.08,-0.478 -0.08,-0.837 v -0.887 c 0,-0.292 0.066,-0.515 0.198,-0.67 0.131,-0.156 0.324,-0.234 0.577,-0.234 h 6.735 v -1.819 h -2.133 c -0.652,0 -1.12,-0.109 -1.402,-0.327 -0.283,-0.219 -0.424,-0.575 -0.424,-1.07 0,-0.486 0.139,-0.835 0.416,-1.048 0.277,-0.214 0.747,-0.321 1.41,-0.321 h 6.165 c 0.663,0 1.138,0.107 1.425,0.321 0.287,0.213 0.431,0.562 0.431,1.048 0,0.398 -0.121,0.725 -0.365,0.982 -0.244,0.257 -0.54,0.386 -0.891,0.386 -0.039,0 -0.127,0.005 -0.263,0.014 -0.136,0.01 -0.249,0.015 -0.337,0.015 H 0 v 1.819 h 1.636 c 0.215,0 0.389,0.049 0.526,0.146 0.137,0.097 0.234,0.248 0.292,0.452 l 0.321,1.077 c 0.03,0.087 0.052,0.184 0.067,0.291 0.014,0.107 0.021,0.208 0.021,0.306 0,0.358 -0.117,0.637 -0.35,0.837 -0.234,0.198 -0.555,0.298 -0.964,0.298 -0.176,0 -0.39,-0.124 -0.644,-0.372 -0.253,-0.247 -0.476,-0.371 -0.672,-0.371 -0.068,0 -0.117,0.002 -0.146,0.008 -0.028,0.005 -0.058,0.012 -0.087,0.022 z m -3.171,-10.277 h -4.588 l 4.588,8.049 z"
                   style="fill:none;stroke:#000000;stroke-width:1.188;stroke-linecap:butt;stroke-linejoin:miter;stroke-miterlimit:4;stroke-dasharray:none;stroke-opacity:1"
                   id="path120" /></g></g></g></g><g
           id="g128"
           transform="translate(65.5,141.265)"><path
             d="m 0,0 58.03,-33.46 v -66.99 L 0,-133.91 l -58.03,33.46 v 66.99 z"
             style="fill:none;stroke:#d7e4f2;stroke-width:2;stroke-linecap:butt;stroke-linejoin:bevel;stroke-miterlimit:10;stroke-dasharray:none;stroke-opacity:1"
             id="path130" /></g><g
           id="g132"
           transform="translate(65.5,141.265)"><path
             d="m 0,0 58.03,-33.46 v -66.99 L 0,-133.91 l -58.03,33.46 v 66.99 z"
             style="fill:none;stroke:#85a5bd;stroke-width:8;stroke-linecap:butt;stroke-linejoin:bevel;stroke-miterlimit:10;stroke-dasharray:none;stroke-opacity:1"
             id="path134" /></g><g
           id="g136"
           transform="translate(49.96,78.615)"><path
             d="M 0,0 V 0 C -0.63,0.35 -1.4,0.56 -2.1,0.63 -2.38,0.7 -2.66,0.77 -2.94,0.77 h -0.7 C -4.13,0.77 -4.55,0.63 -5.11,0.56 -5.6,0.49 -6.02,0.42 -6.51,0.35 L -6.79,0.28 -7.28,0.21 C -7.49,0.14 -7.77,0.14 -8.05,0.07 -8.4,0 -8.68,0 -9.03,0 l -0.49,-0.42 -0.35,-0.28 -0.35,-0.21 -1.33,-1.05 -0.07,-0.07 c -0.91,-0.7 -1.82,-1.4 -2.38,-1.82 0,-0.07 -0.07,-0.21 -0.14,-0.28 -0.14,-0.14 -0.28,-0.07 -0.42,0.07 -0.07,0.07 -0.14,0.21 -0.14,0.35 v 0.07 c 0,0.07 -0.07,0.14 -0.07,0.28 0,0.14 -0.07,0.28 -0.07,0.42 -0.42,2.1 -1.05,8.19 1.26,13.51 l 0.21,0.63 0.07,0.21 0.07,0.21 c 0.07,0.14 0.07,0.28 0.14,0.42 l 0.07,0.21 c 0.21,0.49 0.42,0.98 0.7,1.4 1.05,1.89 2.31,3.64 3.85,5.18 2.31,2.45 4.97,4.62 7.91,6.23 -4.27,-1.33 -8.19,-3.71 -11.41,-6.93 -8.26,-8.12 -10.36,-19.95 -6.3,-29.75 l 0.07,-0.21 c 0.14,-0.28 0.35,-0.49 0.49,-0.42 0.28,0.21 0.49,0.42 0.7,0.7 2.31,1.82 4.41,2.45 7.14,3.5 0.21,0.07 6.09,3.15 10.43,7.7 z"
             style="fill:#024c4e;fill-opacity:1;fill-rule:nonzero;stroke:none"
             id="path138" /></g><g
           id="g140"
           transform="translate(41.42,97.445)"><path
             d="m 0,0 v 0 c -1.54,-1.54 -2.8,-3.29 -3.85,-5.18 -0.28,-0.42 -0.49,-0.91 -0.7,-1.4 L -4.62,-6.79 C -4.69,-6.93 -4.69,-7.07 -4.76,-7.21 L -4.83,-7.42 -4.9,-7.63 -5.11,-8.26 c -2.31,-5.39 -1.68,-11.41 -1.26,-13.51 0,-0.14 0.07,-0.28 0.07,-0.42 0,-0.07 0.07,-0.21 0.07,-0.28 v -0.07 c 0.07,-0.14 0.07,-0.21 0.14,-0.35 0.14,-0.14 0.28,-0.21 0.42,-0.07 0.07,0.07 0.07,0.14 0.14,0.28 0.56,0.42 1.47,1.12 2.38,1.82 l 0.07,0.07 1.33,1.05 0.35,0.28 0.35,0.28 0.49,0.42 h 0.98 c 0.28,0 0.49,0.07 0.77,0.14 l 0.49,0.07 0.28,0.07 c 0.42,0.07 0.91,0.14 1.4,0.21 0.56,0.07 1.05,0.14 1.47,0.21 0.56,0.07 1.05,0 1.61,-0.14 0.77,0 1.47,-0.21 2.1,-0.63 l 0.56,-0.35 c 1.54,1.54 2.73,3.36 3.64,5.32 l -0.28,0.14 c -0.14,0 -0.28,0.07 -0.42,0.14 -0.63,0.21 -1.33,0.42 -1.96,0.7 -1.68,0.77 -1.75,0.49 -2.59,0.84 -3.15,0.28 -2.94,0.28 -3.64,0.28 -1.47,-0.77 -3.01,-1.4 -4.62,-1.96 -0.28,-0.49 -0.56,-0.42 -0.56,-0.28 -0.21,0.49 0.84,4.76 2.24,6.93 0,0.35 0.07,0.7 0.14,1.12 0.14,1.05 0.42,2.1 0.77,3.15 l 0.14,0.42 v 0.07 l 0.21,0.42 c 0.63,1.33 1.47,2.59 2.45,3.71 1.68,1.89 3.71,3.36 6.02,4.34 0.42,0.21 0.91,0.35 1.33,0.49 l 0.49,0.14 h 0.07 c 0.21,0.07 0.35,0.07 0.56,0.14 h 0.07 L 13.51,7 c 0.21,0.07 0.42,0.07 0.63,0.14 l 0.35,0.07 c 0.21,0 0.42,0.07 0.63,0.07 0.21,0 0.56,0.07 0.84,0.07 l 1.05,0.07 C 13.93,7.56 10.78,7.14 7.84,6.16 4.97,4.62 2.31,2.45 0,0"
             style="fill:#037e81;fill-opacity:1;fill-rule:nonzero;stroke:none"
             id="path142" /></g><g
           id="g144"
           transform="translate(56.61,104.795)"><path
             d="M 0,0 C -0.21,0 -0.42,-0.07 -0.63,-0.07 L -0.98,-0.14 C -1.19,-0.21 -1.4,-0.21 -1.61,-0.28 L -1.96,-0.35 H -2.03 C -2.17,-0.42 -2.38,-0.42 -2.59,-0.49 H -2.66 C -2.8,-0.56 -3.01,-0.56 -3.15,-0.63 -3.57,-0.77 -4.06,-0.91 -4.48,-1.12 -5.53,-1.54 -6.44,-2.1 -7.42,-2.73 -8.54,-3.5 -9.59,-4.41 -10.5,-5.46 c -0.98,-1.12 -1.82,-2.38 -2.45,-3.71 l -0.21,-0.56 V -9.8 l -0.14,-0.42 c -0.35,-1.05 -0.63,-2.1 -0.77,-3.15 -0.07,-0.35 -0.07,-0.7 -0.14,-1.12 -1.33,-2.17 -2.38,-6.44 -2.24,-6.93 0,-0.14 0.28,-0.21 0.56,0.28 1.61,0.56 3.15,1.26 4.62,2.03 0.7,0.07 0.49,0 3.64,-0.28 0.77,-0.28 0.91,-0.07 2.59,-0.84 0.63,-0.28 1.26,-0.49 1.96,-0.7 0.14,-0.07 0.28,-0.07 0.42,-0.14 l 0.28,-0.14 c 0.14,0.35 0.28,0.77 0.42,1.19 0.56,1.82 0.91,3.29 1.19,4.55 v 0.07 c -0.28,0.14 -0.56,0.21 -0.84,0.35 -1.68,0.63 -3.5,0.77 -5.32,0.49 -0.28,0 -0.49,-0.07 -0.77,-0.21 -1.26,-0.56 -2.59,-1.19 -3.78,-1.89 -0.49,-0.49 -0.77,-0.14 -0.42,0.35 1.26,1.89 2.66,3.64 4.13,5.25 0.28,0.28 0.56,0.63 0.84,0.91 0,0 0.98,6.16 9.31,9.1 0.21,0.07 0.42,0.14 0.7,0.21 0.21,0.07 0.42,0.14 0.63,0.21 l 0.14,0.07 c 0.21,0.07 0.35,0.07 0.56,0.14 0.21,0.07 0.49,0.14 0.7,0.14 L 4.34,-0.21 C 3.57,-0.14 2.73,-0.07 1.96,0 L 0.91,-0.07 C 0.56,0 0.28,0 0,0"
             style="fill:#95c121;fill-opacity:1;fill-rule:nonzero;stroke:none"
             id="path146" /></g><g
           id="g148"
           transform="translate(61.02,104.515)"><path
             d="M 0,0 -0.56,-0.14 -0.7,-0.21 c -0.21,-0.07 -0.42,-0.14 -0.63,-0.21 -0.21,-0.07 -0.42,-0.14 -0.7,-0.21 -8.33,-2.94 -9.31,-9.1 -9.31,-9.1 -0.28,-0.28 -0.56,-0.63 -0.84,-0.91 -1.54,-1.68 -2.94,-3.43 -4.2,-5.32 -0.35,-0.49 -0.07,-0.84 0.42,-0.35 1.26,0.7 2.52,1.33 3.78,1.89 0.21,0.07 0.49,0.14 0.77,0.21 1.82,0.28 3.64,0.14 5.32,-0.49 0.28,-0.14 0.56,-0.28 0.84,-0.35 0.84,3.99 0.42,5.53 0.98,7.42 0.14,0.84 0.42,1.68 0.7,2.45 0.77,2.03 2.1,3.85 3.85,5.11 L 0.35,0 0.63,0.14 H 0.56 C 0.42,0.07 0.21,0.07 0,0"
             style="fill:#d9e6b1;fill-opacity:1;fill-rule:nonzero;stroke:none"
             id="path150" /></g></g></g></g></svg>
