<?xml version="1.0" encoding="UTF-8" standalone="no"?>
<svg
   xmlns:dc="http://purl.org/dc/elements/1.1/"
   xmlns:cc="http://creativecommons.org/ns#"
   xmlns:rdf="http://www.w3.org/1999/02/22-rdf-syntax-ns#"
   xmlns:svg="http://www.w3.org/2000/svg"
   xmlns="http://www.w3.org/2000/svg"
   xmlns:sodipodi="http://sodipodi.sourceforge.net/DTD/sodipodi-0.dtd"
   xmlns:inkscape="http://www.inkscape.org/namespaces/inkscape"
   inkscape:version="1.0beta2 (2b71d25, 2019-12-03)"
   inkscape:export-ydpi="100"
   inkscape:export-xdpi="100"
   inkscape:export-filename="C:\Users\kaued\Dropbox (Bioversity CR)\Rcode\chirps\man\figures\logo.png"
   sodipodi:docname="logo.svg"
   id="svg6"
   version="1.1"
   viewBox="0 0 170.07874 196.53543"
   height="5.1999998cm"
   width="4.5cm">
  <metadata
     id="metadata12">
    <rdf:RDF>
      <cc:Work
         rdf:about="">
        <dc:format>image/svg+xml</dc:format>
        <dc:type
           rdf:resource="http://purl.org/dc/dcmitype/StillImage" />
        <dc:title />
      </cc:Work>
    </rdf:RDF>
  </metadata>
  <defs
     id="defs10">
    <clipPath
       id="clipPath33"
       clipPathUnits="userSpaceOnUse">
      <rect
         ry="0.72283477"
         y="-44.76963"
         x="-1.36356"
         height="546.71973"
         width="614.25568"
         id="rect35"
         style="opacity:0.02000002;fill:#f9f9f9;fill-opacity:1;stroke:none;stroke-width:7.6500001;stroke-miterlimit:4;stroke-dasharray:none;stroke-opacity:1" />
    </clipPath>
    <clipPath
       id="clipPath248"
       clipPathUnits="userSpaceOnUse">
      <path
         d="M 11.923956,178.40842 41.546357,50.592613 166.84722,12.279944 l 95.67334,89.525326 -29.6224,127.8158 -125.30045,38.31081 z"
         id="path250"
         inkscape:connector-curvature="0"
         style="fill:#ffffff;fill-opacity:1;stroke-width:1.89437"
         inkscape:export-xdpi="100"
         inkscape:export-ydpi="100" />
    </clipPath>
  </defs>
  <sodipodi:namedview
     inkscape:document-rotation="0"
     inkscape:snap-text-baseline="true"
     units="cm"
     inkscape:current-layer="svg6"
     inkscape:window-maximized="0"
     inkscape:window-y="23"
     inkscape:window-x="0"
     inkscape:cy="49.679525"
     inkscape:cx="-99.992882"
     inkscape:zoom="1.1893663"
     showgrid="false"
     id="namedview8"
     inkscape:window-height="924"
     inkscape:window-width="1680"
     inkscape:pageshadow="2"
     inkscape:pageopacity="0"
     guidetolerance="10"
     gridtolerance="10"
     objecttolerance="10"
     borderopacity="1"
     bordercolor="#666666"
     pagecolor="#ffffff" />
  <path
     inkscape:export-ydpi="100"
     inkscape:export-xdpi="100"
     style="fill:#ffffff;stroke-width:1.30410552;fill-opacity:1"
     inkscape:connector-curvature="0"
     id="path2"
     d="M 6.4162442,142.36982 V 52.047455 L 84.493098,6.8784349 162.56995,52.047455 v 90.322365 l -78.076852,45.16771 z" />
  <g
     style="fill:#cccccc"
     clip-path="url(#clipPath248)"
     transform="matrix(0.670639,-0.1554263,0.1554263,0.670639,-29.045677,26.499266)"
     id="g135">
    <g
       style="fill:#cccccc"
       id="g133">
      <path
         inkscape:connector-curvature="0"
         style="fill:#cccccc"
         d="m 273.501,115.618 c -3.862,-23.79 -13.788,-45.574 -28.212,-63.648 -0.12,-0.147 -0.234,-0.299 -0.354,-0.451 -9.284,-11.542 -20.391,-21.544 -32.879,-29.599 -0.092,-0.109 -0.185,-0.228 -0.277,-0.332 -0.767,-0.903 -1.784,-1.403 -2.85,-1.67 C 188.755,7.664 165.187,0.506 140.004,0.082 139.814,0.087 139.623,0.038 139.433,0.06 138.84,0.054 138.258,0 137.665,0 128.576,0 119.694,0.908 111.09,2.6 111.052,2.605 111.014,2.589 110.976,2.595 110.932,2.6 110.9,2.633 110.856,2.639 104.911,3.819 99.129,5.44 93.484,7.36 93.37,7.376 93.266,7.442 93.152,7.469 73.321,14.268 55.492,25.418 40.893,39.864 c -0.158,0.158 -0.321,0.299 -0.479,0.457 -5.744,5.738 -10.954,11.993 -15.621,18.667 -0.147,0.207 -0.299,0.413 -0.441,0.62 -8.217,11.894 -14.548,25.165 -18.72,39.35 -0.049,0.201 -0.141,0.392 -0.163,0.598 -3.503,12.118 -5.466,24.878 -5.466,38.112 0,10.971 1.327,21.637 3.764,31.873 0.038,0.152 0.071,0.31 0.109,0.462 5.651,23.377 17.269,44.432 33.167,61.472 0.212,0.228 0.435,0.451 0.647,0.68 9.834,10.399 21.25,19.287 33.885,26.233 0.016,0.011 0.038,0.022 0.054,0.033 19.613,10.769 42.115,16.91 66.03,16.91 v 0 0 c 0,0 0,0 0.005,0 6.293,0 12.472,-0.462 18.542,-1.284 0.114,-0.011 0.223,-0.011 0.337,-0.027 0.022,-0.005 0.038,-0.022 0.06,-0.022 31.601,-4.373 59.792,-19.499 80.776,-41.571 0.272,-0.288 0.549,-0.571 0.821,-0.865 11.808,-12.635 21.256,-27.484 27.669,-43.855 0.071,-0.185 0.147,-0.37 0.223,-0.56 5.939,-15.365 9.236,-32.042 9.236,-49.479 0,-7.239 -0.647,-14.321 -1.73,-21.261 -0.032,-0.267 -0.027,-0.533 -0.097,-0.789 z M 168.717,260.596 c -2.828,0.713 -5.7,1.311 -8.599,1.828 l -4.068,-24.22 c 12.118,-1.969 23.236,-4.542 33.369,-7.582 -10.035,19.053 -20.293,29.48 -20.511,29.692 -0.088,0.076 -0.115,0.19 -0.191,0.282 z M 37.864,185.875 c 7.919,2.154 17.247,4.068 28.027,5.385 6.162,15.659 13.81,28.827 21.767,39.738 C 76.568,230.226 66.93,228.779 58.695,227.011 50.978,215.887 43.537,202.235 37.864,185.875 Z M 10.875,137.668 c 0,-10.182 1.24,-20.081 3.519,-29.578 1.311,0.598 2.883,1.262 4.596,1.947 -2.159,17.905 -1.947,37.225 2.382,57.235 0.114,0.533 0.256,1.033 0.375,1.561 -3.258,-1.43 -5.88,-2.752 -7.87,-3.862 -1.946,-8.794 -3.002,-17.926 -3.002,-27.303 z m 21.126,27.31 c -3.845,-17.797 -4.242,-35.071 -2.524,-51.198 6.5,2.045 14.473,4.058 23.829,5.657 -0.495,13.462 0.479,27.609 3.617,42.147 1.382,6.385 3.046,12.423 4.89,18.199 -11.063,-1.637 -20.271,-3.916 -27.75,-6.326 -0.735,-2.768 -1.431,-5.58 -2.062,-8.479 z M 39.414,70.12 c 6.973,1.202 14.158,1.991 21.473,2.497 -3.122,10.96 -5.591,22.991 -6.831,35.767 -9.176,-1.632 -16.921,-3.66 -23.024,-5.646 1.969,-11.677 4.928,-22.659 8.382,-32.618 z m 68.054,-55.581 7.56,45.019 c -14.408,2.078 -27.5,2.834 -39.172,2.752 8.414,-23.584 18.77,-40.189 21.93,-44.976 3.177,-1.049 6.402,-1.99 9.682,-2.795 z M 77.292,73.253 c 12.695,0 25.836,-0.979 39.352,-2.932 0.065,-0.011 0.125,-0.022 0.185,-0.033 l 6.587,39.221 c -22.904,2.845 -42.463,2.426 -58.459,0.484 1.295,-13.228 4.003,-25.651 7.359,-36.877 1.658,0.039 3.295,0.137 4.976,0.137 z m -9.736,86.03 c -2.834,-13.114 -3.726,-25.955 -3.318,-38.258 8.104,0.941 17.051,1.523 26.836,1.523 10.427,0 21.854,-0.707 34.146,-2.263 l 9.943,59.215 c -24.111,3.117 -44.497,3.225 -61.38,1.686 -2.42,-6.837 -4.541,-14.114 -6.227,-21.903 z m 68.418,-40.652 c 25.776,-4.422 46.629,-12.744 62.886,-21.93 4.623,12.706 7.974,26.548 9.148,41.37 0.566,7.158 0.571,13.946 0.332,20.538 -16.41,8.017 -37.002,15.142 -62.402,19.347 z m 82.88,18.58 c -1.327,-16.741 -5.173,-32.21 -10.427,-46.281 10.073,-6.56 17.9,-13.13 23.731,-18.71 8.322,17.073 14.772,36.861 16.518,58.851 0.005,0.087 0.005,0.169 0.016,0.25 -6.951,6.494 -16.546,14.093 -29.23,21.397 0.001,-5.02 -0.183,-10.182 -0.608,-15.507 z M 206.883,32.738 c 6.641,8.235 13.619,18.107 19.961,29.382 -5.232,5.211 -12.727,11.759 -22.643,18.411 -5.521,-12.455 -12.058,-23.633 -18.776,-33.401 8.372,-4.771 15.502,-9.72 21.458,-14.392 z m -12.129,53.689 c -15.496,8.953 -35.637,17.182 -60.58,21.479 l -6.63,-39.488 c 18.667,-3.709 34.62,-9.513 47.989,-16.078 6.901,9.899 13.64,21.316 19.221,34.087 z M 78.206,192.45 c 5.657,0.392 11.64,0.609 17.971,0.609 12.281,0 25.917,-0.876 40.793,-2.817 l 6.511,38.791 c -15.327,1.947 -29.121,2.665 -41.44,2.524 -8.47,-10.339 -16.95,-23.279 -23.835,-39.107 z m 76.043,35.028 -6.511,-38.786 c 23.742,-3.922 43.474,-10.22 59.705,-17.481 -1.958,17.807 -6.413,33.216 -11.716,45.966 -12.118,4.226 -25.928,7.777 -41.478,10.301 z m 64.774,-61.897 c 12.439,-6.554 22.404,-13.522 30.209,-19.999 -0.016,18.128 -2.796,34.136 -6.783,47.788 -8.811,6.288 -19.624,12.646 -32.754,18.335 4.574,-13.223 8.131,-28.632 9.328,-46.124 z m 45.432,-27.913 c 0,15.556 -2.834,30.459 -7.979,44.247 2.779,-13.658 4.226,-29.061 3.383,-46.036 1.643,-1.664 3.122,-3.247 4.433,-4.721 0.104,2.153 0.163,4.324 0.163,6.51 z m -5.928,-16.627 c -2.926,-21.359 -9.877,-40.526 -18.362,-57.105 0.092,-0.109 0.218,-0.239 0.31,-0.343 11.02,15.251 18.721,33.031 22.072,52.291 -0.833,1.176 -2.149,2.932 -4.02,5.157 z M 197.74,26.042 c -5.319,4.014 -11.553,8.186 -18.732,12.205 -8.387,-11.02 -16.605,-19.787 -23.034,-26.031 14.913,2.165 28.995,6.924 41.766,13.826 z M 137.665,10.878 c 0.196,0 0.386,0.016 0.582,0.016 4.155,3.47 17.079,14.843 30.758,32.547 -12.162,5.803 -26.564,10.9 -43.257,14.245 l -7.609,-45.302 c 6.364,-0.989 12.885,-1.506 19.526,-1.506 z M 64.222,61.935 C 56.45,61.489 49.52,60.679 43.347,59.7 45.098,55.365 46.893,51.264 48.699,47.446 58.092,38.183 68.921,30.389 80.811,24.395 75.78,33.488 69.519,46.341 64.222,61.935 Z M 25.158,79.318 c -1.757,6.249 -3.285,12.782 -4.509,19.57 -1.235,-0.522 -2.295,-0.995 -3.204,-1.42 2.106,-6.288 4.689,-12.347 7.713,-18.15 z m -0.011,102.57 c 4.395,14.658 10.166,27.424 16.48,38.416 C 31.26,208.273 23.112,194.289 17.82,178.973 c 2.204,0.946 4.619,1.925 7.327,2.915 z m 51.753,67.02 c -2.676,-2.692 -5.477,-5.711 -8.338,-9.072 8.327,1.256 17.682,2.154 28.098,2.48 7.56,8.724 14.968,15.529 21.256,20.592 -14.647,-2.301 -28.473,-7.12 -41.016,-14 z m 62.136,15.512 c -3.486,-2.04 -14.615,-9.051 -27.342,-22.061 10.312,-0.239 21.506,-1.061 33.586,-2.605 l 4.052,24.144 c -3.394,0.31 -6.831,0.484 -10.296,0.522 z m 65.165,-38.797 c 12.396,-4.661 23.138,-9.937 32.313,-15.398 -2.246,5.434 -4.601,10.318 -6.913,14.615 -11.656,12.287 -25.732,22.257 -41.473,29.11 4.961,-6.978 10.787,-16.47 16.073,-28.327 z"
         id="path131" />
    </g>
  </g>
  <path
     inkscape:export-ydpi="100"
     inkscape:export-xdpi="100"
     inkscape:connector-curvature="0"
     style="fill:#000000;stroke-width:1.33034372"
     id="path4"
     d="M 85.333882,9.8211794 161.65767,53.979539 V 142.27359 L 85.333882,186.43196 9.0101013,142.27359 V 53.979539 Z m 0,-7.6946117 L 2.3732513,50.126233 V 146.1269 L 85.333882,194.12657 168.29452,146.1269 V 50.126233 Z" />
  <text
     id="text4539"
     y="148.75124"
     x="28.986008"
     style="font-style:normal;font-variant:normal;font-weight:bold;font-stretch:normal;font-size:21.3333px;line-height:1.25;font-family:sans-serif;-inkscape-font-specification:'sans-serif Bold';font-variant-ligatures:normal;font-variant-caps:normal;font-variant-numeric:normal;font-variant-east-asian:normal;text-align:start;letter-spacing:0px;word-spacing:0px;writing-mode:lr-tb;text-anchor:start;fill:#000000;fill-opacity:1;stroke:none"
     xml:space="preserve"><tspan
       y="148.75124"
       x="28.986008"
       id="tspan4537"
       sodipodi:role="line">gdistance</tspan></text>
  <g
     transform="matrix(0.20215788,0,0,0.20215788,28.085468,31.418587)"
     id="g30">
    <g
       id="g28">
      <path
         inkscape:connector-curvature="0"
         d="m 225.278,278.426 c 0,-48.641 -39.572,-88.213 -88.214,-88.213 -48.641,0 -88.212,39.572 -88.212,88.213 0,14.254 3.401,27.727 9.431,39.654 l 78.781,162.463 78.795,-162.488 c 6.021,-11.922 9.419,-25.386 9.419,-39.629 z m -88.214,48.817 c -26.917,0 -48.817,-21.9 -48.817,-48.817 0,-26.917 21.9,-48.817 48.817,-48.817 26.918,0 48.817,21.9 48.817,48.817 0,26.917 -21.899,48.817 -48.817,48.817 z"
         id="path22" />
      <path
         inkscape:connector-curvature="0"
         d="m 387.021,0 c -24.63,0 -44.669,20.038 -44.669,44.668 0,7.218 1.723,14.04 4.776,20.081 l 39.893,82.267 39.899,-82.28 c 3.049,-6.037 4.77,-12.855 4.77,-20.067 C 431.69,20.038 411.65,0 387.021,0 Z m 0,69.388 c -13.631,0 -24.72,-11.089 -24.72,-24.72 0,-13.63 11.089,-24.72 24.72,-24.72 13.629,0 24.719,11.09 24.719,24.72 0,13.631 -11.09,24.72 -24.719,24.72 z"
         id="path24" />
      <path
         inkscape:connector-curvature="0"
         d="m 348.116,289.787 c -1.812,-8.523 -4.166,-16.875 -7.131,-25.075 -3.974,-10.987 -8.74,-21.724 -12.391,-32.836 -6.823,-20.771 4.948,-38.105 7.16,-41.256 3.876,-5.517 8.408,-10.58 13.19,-15.322 9.207,-9.128 19.361,-17.288 29.984,-24.803 -1.316,-2.039 -2.591,-4.1 -3.805,-6.199 -15.279,5.99 -93.854,33.452 -91.938,94.121 0.384,12.162 5.083,23.737 7.979,35.526 1.395,5.681 2.605,11.412 3.345,17.218 0.319,2.614 0.515,5.243 0.729,7.87 0.006,-0.02 0.004,-0.034 -0.008,-0.045 0.007,0.076 0.202,8.326 -0.164,11.9 -1.147,11.189 -2.799,22.494 -7.516,32.758 -4.387,9.543 -11.006,17.842 -19.193,24.402 -18.716,14.994 -43.514,20.988 -66.913,23.398 -1.114,0.117 -2.228,0.217 -3.342,0.314 l -41.779,86.152 c 20.614,-1.281 41.175,-4.102 61.235,-9.039 23.607,-5.811 46.613,-14.588 67.227,-27.598 20.596,-12.996 38.308,-30.578 50.099,-51.984 12.335,-22.391 17.277,-48.038 16.225,-73.452 -0.357,-8.681 -1.181,-17.53 -2.993,-26.05 z"
         id="path26" />
    </g>
  </g>
</svg>
